<svg id="Capa_1" enable-background="new 0 0 512 512" height="512" viewBox="0 0 512 512" width="512" xmlns="http://www.w3.org/2000/svg"><g><path d="m84.681 0v433.62c0 43.219 35.161 78.38 78.38 78.38h185.879c43.219 0 78.38-35.161 78.38-78.38v-433.62zm312.638 30v41.822c-13.315 1.562-21.932 5.09-29.764 8.296-9.019 3.693-16.809 6.882-33.398 6.882s-24.378-3.189-33.398-6.882c-10.439-4.274-22.272-9.118-44.763-9.118s-34.324 4.844-44.763 9.119c-9.02 3.692-16.808 6.881-33.396 6.881-16.587 0-24.376-3.189-33.395-6.881-7.832-3.207-16.448-6.735-29.762-8.297v-41.822zm-48.38 452h-185.878c-25.898 0-47.108-20.455-48.324-46.057 13.324 10.463 30.108 16.709 48.324 16.709h185.879c18.216 0 35-6.246 48.324-16.709-1.217 25.602-22.426 46.057-48.325 46.057zm0-59.348h-185.878c-26.677 0-48.38-21.703-48.38-48.38v-272.151c7.373 1.248 12.633 3.401 18.395 5.76 10.439 4.274 22.271 9.119 44.762 9.119s34.323-4.844 44.763-9.118c9.019-3.693 16.808-6.882 33.396-6.882s24.378 3.189 33.397 6.882c10.439 4.274 22.272 9.118 44.764 9.118s34.325-4.844 44.764-9.118c5.763-2.359 11.024-4.513 18.398-5.761v272.151c-.001 26.677-21.704 48.38-48.381 48.38z"/><path d="m255 247c-38.363 0-69.573 31.21-69.573 69.573s31.21 69.573 69.573 69.573 69.573-31.21 69.573-69.573-31.21-69.573-69.573-69.573zm0 30c5.416 0 10.582 1.094 15.288 3.073l-51.788 51.788c-1.978-4.706-3.073-9.871-3.073-15.287 0-21.822 17.753-39.574 39.573-39.574zm0 79.146c-5.416 0-10.582-1.094-15.287-3.073l51.788-51.788c1.978 4.706 3.073 9.871 3.073 15.288-.001 21.821-17.753 39.573-39.574 39.573z"/><path d="m163.514 195.087h30v30h-30z"/><path d="m256 141.087h30v30h-30z"/><path d="m320.789 203.696h30v30h-30z"/></g></svg>