<svg id="Layer_1" enable-background="new 0 0 24 24" height="512" viewBox="0 0 24 24" width="512" xmlns="http://www.w3.org/2000/svg"><g id="respirator" fill="#010101"><path id="Path-69" d="m7.5 12c-1.333 0-1.333-2 0-2h2.5v-4c0-1.131-1.73-1.625-4-1.625s-4 .494-4 1.625v14.5c0 1.325 1.773 2 4 2s4-.675 4-2v-8.5zm1.5 1v7.5c0 .509-1.289 1-3 1s-3-.491-3-1v-14.5c0-.244 1.333-.625 3-.625s3 .381 3 .625v3h-1.5c-2.667 0-2.667 4 0 4z"/><path id="Path-70" d="m9 6c0 .833-6 .833-6 0h-1c0 2.167 8 2.167 8 0z"/><path id="Path-71" d="m7.5 9c-2.667 0-2.667 4 0 4h5c.372 0 .613-.391.447-.724-.43-.859-.43-1.694 0-2.553.166-.332-.075-.723-.447-.723zm4.268 3h-4.268c-1.333 0-1.333-2 0-2h4.268c-.191.665-.191 1.335 0 2z"/><path id="Path-72" d="m18.5 16c-2.849 0-4.5-1.801-4.5-5 0-1.36.302-2.255 1.059-3.673.108-.201.163-.304.212-.397.523-.993.729-1.609.729-2.43 0-1.651 1.099-2.75 2.5-2.75s2.5 1.099 2.5 2.75c0 .821.206 1.437.729 2.43.049.093.104.196.212.397.757 1.418 1.059 2.313 1.059 3.673 0 3.199-1.651 5-4.5 5zm0-1c2.276 0 3.5-1.335 3.5-4 0-1.161-.255-1.916-.941-3.202-.107-.199-.163-.306-.214-.401-.593-1.124-.845-1.88-.845-2.897 0-1.099-.651-1.75-1.5-1.75s-1.5.651-1.5 1.75c0 1.017-.252 1.773-.845 2.897-.05.096-.107.202-.214.401-.686 1.286-.941 2.041-.941 3.202 0 2.665 1.224 4 3.5 4z"/><path id="Oval" d="m16.5 13c.828 0 1.5-.895 1.5-2s-.672-2-1.5-2-1.5.895-1.5 2 .672 2 1.5 2zm0-1c-.203 0-.5-.395-.5-1s.297-1 .5-1 .5.395.5 1-.297 1-.5 1z"/><path id="Path-73" d="m18.5 16c-1.83 0-3.077-.732-3.786-1.946 1.027.592 2.354.946 3.785.946.668 0 .668 1 .001 1zm-.001-1v1c-3.672-.001-6.855-2.089-6.855-5 0-1.306.575-2.278 1.903-3.704.079-.084.399-.424.532-.564 1.165-1.234 1.692-1.952 1.983-2.881.169-.547.976-.424.976.149 0 1.475-.287 2.323-1.079 3.79l-.04.075c-.691 1.279-.919 1.95-.919 3.135 0 2.451 1.078 3.999 3.499 4zm-4.499-4c0-1.386.276-2.197 1.038-3.61l.04-.075c.085-.158.164-.308.237-.451-.157.175-.327.359-.511.553-.133.143-.133.143-.266.283-.104.11-.184.195-.261.277-1.167 1.254-1.634 2.044-1.634 3.023 0 1.239.81 2.326 2.07 3.054-.48-.823-.713-1.866-.713-3.054z"/></g></svg>